<mxfile host="app.diagrams.net" agent="Mozilla/5.0 (Macintosh; Intel Mac OS X 10_15_7) AppleWebKit/537.36 (KHTML, like Gecko) Chrome/136.0.0.0 Safari/537.36" version="27.1.5">
  <diagram name="Page-1" id="55a83fd1-7818-8e21-69c5-c3457e3827bb">
    <mxGraphModel dx="907" dy="620" grid="1" gridSize="10" guides="1" tooltips="1" connect="1" arrows="1" fold="1" page="1" pageScale="1" pageWidth="1100" pageHeight="850" background="none" math="0" shadow="0">
      <root>
        <mxCell id="0" />
        <mxCell id="1" parent="0" />
        <mxCell id="69ecfefc5c41e42c-2" value="Internet" style="image;html=1;labelBackgroundColor=#ffffff;image=img/lib/clip_art/networking/Cloud_128x128.png;rounded=1;shadow=0;comic=0;strokeWidth=2;fontSize=22;labelPosition=center;verticalLabelPosition=top;align=center;verticalAlign=bottom;" parent="1" vertex="1">
          <mxGeometry x="145" y="110" width="80" height="80" as="geometry" />
        </mxCell>
        <mxCell id="69ecfefc5c41e42c-8" value="" style="image;html=1;labelBackgroundColor=#ffffff;image=img/lib/clip_art/telecommunication/iPhone_128x128.png;rounded=1;shadow=0;comic=0;strokeWidth=2;fontSize=22" parent="1" vertex="1">
          <mxGeometry x="140" y="440" width="60" height="50" as="geometry" />
        </mxCell>
        <mxCell id="c7BrIo0tIst9Jb-eHItU-27" value="" style="edgeStyle=orthogonalEdgeStyle;rounded=0;orthogonalLoop=1;jettySize=auto;html=1;" edge="1" parent="1" source="c7BrIo0tIst9Jb-eHItU-1" target="69ecfefc5c41e42c-2">
          <mxGeometry relative="1" as="geometry" />
        </mxCell>
        <mxCell id="c7BrIo0tIst9Jb-eHItU-1" value="" style="image;html=1;image=img/lib/clip_art/computers/Server_128x128.png" vertex="1" parent="1">
          <mxGeometry x="145" y="270" width="80" height="80" as="geometry" />
        </mxCell>
        <mxCell id="c7BrIo0tIst9Jb-eHItU-29" style="edgeStyle=orthogonalEdgeStyle;rounded=0;orthogonalLoop=1;jettySize=auto;html=1;" edge="1" parent="1" source="c7BrIo0tIst9Jb-eHItU-3">
          <mxGeometry relative="1" as="geometry">
            <mxPoint x="185" y="430" as="targetPoint" />
          </mxGeometry>
        </mxCell>
        <mxCell id="c7BrIo0tIst9Jb-eHItU-3" value="小红书线索爬取" style="text;html=1;align=center;verticalAlign=middle;resizable=0;points=[];autosize=1;strokeColor=none;fillColor=none;fontSize=15;fontStyle=1" vertex="1" parent="1">
          <mxGeometry x="120" y="340" width="130" height="30" as="geometry" />
        </mxCell>
        <mxCell id="c7BrIo0tIst9Jb-eHItU-7" value="" style="image;html=1;labelBackgroundColor=#ffffff;image=img/lib/clip_art/telecommunication/iPhone_128x128.png;rounded=1;shadow=0;comic=0;strokeWidth=2;fontSize=22" vertex="1" parent="1">
          <mxGeometry x="110" y="440" width="60" height="50" as="geometry" />
        </mxCell>
        <mxCell id="c7BrIo0tIst9Jb-eHItU-8" value="" style="image;html=1;labelBackgroundColor=#ffffff;image=img/lib/clip_art/telecommunication/iPhone_128x128.png;rounded=1;shadow=0;comic=0;strokeWidth=2;fontSize=22" vertex="1" parent="1">
          <mxGeometry x="170" y="440" width="60" height="50" as="geometry" />
        </mxCell>
        <mxCell id="c7BrIo0tIst9Jb-eHItU-9" value="" style="image;html=1;labelBackgroundColor=#ffffff;image=img/lib/clip_art/telecommunication/iPhone_128x128.png;rounded=1;shadow=0;comic=0;strokeWidth=2;fontSize=22" vertex="1" parent="1">
          <mxGeometry x="200" y="440" width="60" height="50" as="geometry" />
        </mxCell>
        <mxCell id="c7BrIo0tIst9Jb-eHItU-10" value="" style="image;html=1;labelBackgroundColor=#ffffff;image=img/lib/clip_art/telecommunication/iPhone_128x128.png;rounded=1;shadow=0;comic=0;strokeWidth=2;fontSize=22" vertex="1" parent="1">
          <mxGeometry x="230" y="440" width="60" height="50" as="geometry" />
        </mxCell>
        <mxCell id="c7BrIo0tIst9Jb-eHItU-16" value="" style="image;html=1;labelBackgroundColor=#ffffff;image=img/lib/clip_art/telecommunication/iPhone_128x128.png;rounded=1;shadow=0;comic=0;strokeWidth=2;fontSize=22" vertex="1" parent="1">
          <mxGeometry x="140" y="500" width="60" height="50" as="geometry" />
        </mxCell>
        <mxCell id="c7BrIo0tIst9Jb-eHItU-17" value="" style="image;html=1;labelBackgroundColor=#ffffff;image=img/lib/clip_art/telecommunication/iPhone_128x128.png;rounded=1;shadow=0;comic=0;strokeWidth=2;fontSize=22" vertex="1" parent="1">
          <mxGeometry x="110" y="500" width="60" height="50" as="geometry" />
        </mxCell>
        <mxCell id="c7BrIo0tIst9Jb-eHItU-18" value="" style="image;html=1;labelBackgroundColor=#ffffff;image=img/lib/clip_art/telecommunication/iPhone_128x128.png;rounded=1;shadow=0;comic=0;strokeWidth=2;fontSize=22" vertex="1" parent="1">
          <mxGeometry x="170" y="500" width="60" height="50" as="geometry" />
        </mxCell>
        <mxCell id="c7BrIo0tIst9Jb-eHItU-19" value="" style="image;html=1;labelBackgroundColor=#ffffff;image=img/lib/clip_art/telecommunication/iPhone_128x128.png;rounded=1;shadow=0;comic=0;strokeWidth=2;fontSize=22" vertex="1" parent="1">
          <mxGeometry x="200" y="500" width="60" height="50" as="geometry" />
        </mxCell>
        <mxCell id="c7BrIo0tIst9Jb-eHItU-35" style="edgeStyle=orthogonalEdgeStyle;rounded=0;orthogonalLoop=1;jettySize=auto;html=1;" edge="1" parent="1" source="c7BrIo0tIst9Jb-eHItU-20">
          <mxGeometry relative="1" as="geometry">
            <mxPoint x="480" y="525" as="targetPoint" />
          </mxGeometry>
        </mxCell>
        <mxCell id="c7BrIo0tIst9Jb-eHItU-36" value="私聊、文章内容获取" style="edgeLabel;html=1;align=center;verticalAlign=middle;resizable=0;points=[];" vertex="1" connectable="0" parent="c7BrIo0tIst9Jb-eHItU-35">
          <mxGeometry x="-0.0866" y="1" relative="1" as="geometry">
            <mxPoint as="offset" />
          </mxGeometry>
        </mxCell>
        <mxCell id="c7BrIo0tIst9Jb-eHItU-20" value="" style="image;html=1;labelBackgroundColor=#ffffff;image=img/lib/clip_art/telecommunication/iPhone_128x128.png;rounded=1;shadow=0;comic=0;strokeWidth=2;fontSize=22" vertex="1" parent="1">
          <mxGeometry x="230" y="500" width="60" height="50" as="geometry" />
        </mxCell>
        <mxCell id="c7BrIo0tIst9Jb-eHItU-21" value="" style="image;html=1;labelBackgroundColor=#ffffff;image=img/lib/clip_art/telecommunication/iPhone_128x128.png;rounded=1;shadow=0;comic=0;strokeWidth=2;fontSize=22" vertex="1" parent="1">
          <mxGeometry x="140" y="570" width="60" height="50" as="geometry" />
        </mxCell>
        <mxCell id="c7BrIo0tIst9Jb-eHItU-22" value="" style="image;html=1;labelBackgroundColor=#ffffff;image=img/lib/clip_art/telecommunication/iPhone_128x128.png;rounded=1;shadow=0;comic=0;strokeWidth=2;fontSize=22" vertex="1" parent="1">
          <mxGeometry x="110" y="570" width="60" height="50" as="geometry" />
        </mxCell>
        <mxCell id="c7BrIo0tIst9Jb-eHItU-23" value="" style="image;html=1;labelBackgroundColor=#ffffff;image=img/lib/clip_art/telecommunication/iPhone_128x128.png;rounded=1;shadow=0;comic=0;strokeWidth=2;fontSize=22" vertex="1" parent="1">
          <mxGeometry x="170" y="570" width="60" height="50" as="geometry" />
        </mxCell>
        <mxCell id="c7BrIo0tIst9Jb-eHItU-24" value="" style="image;html=1;labelBackgroundColor=#ffffff;image=img/lib/clip_art/telecommunication/iPhone_128x128.png;rounded=1;shadow=0;comic=0;strokeWidth=2;fontSize=22" vertex="1" parent="1">
          <mxGeometry x="200" y="570" width="60" height="50" as="geometry" />
        </mxCell>
        <mxCell id="c7BrIo0tIst9Jb-eHItU-25" value="" style="image;html=1;labelBackgroundColor=#ffffff;image=img/lib/clip_art/telecommunication/iPhone_128x128.png;rounded=1;shadow=0;comic=0;strokeWidth=2;fontSize=22" vertex="1" parent="1">
          <mxGeometry x="230" y="570" width="60" height="50" as="geometry" />
        </mxCell>
        <mxCell id="c7BrIo0tIst9Jb-eHItU-26" value="云控手机" style="text;html=1;align=center;verticalAlign=middle;resizable=0;points=[];autosize=1;strokeColor=none;fillColor=none;fontSize=16;fontStyle=1" vertex="1" parent="1">
          <mxGeometry x="155" y="640" width="90" height="30" as="geometry" />
        </mxCell>
        <mxCell id="c7BrIo0tIst9Jb-eHItU-31" value="" style="image;html=1;image=img/lib/clip_art/computers/Software_128x128.png" vertex="1" parent="1">
          <mxGeometry x="510" y="510" width="60" height="50" as="geometry" />
        </mxCell>
        <mxCell id="c7BrIo0tIst9Jb-eHItU-32" value="" style="image;html=1;image=img/lib/clip_art/computers/Touch_128x128.png" vertex="1" parent="1">
          <mxGeometry x="545" y="510" width="80" height="80" as="geometry" />
        </mxCell>
        <mxCell id="c7BrIo0tIst9Jb-eHItU-34" value="DIFY" style="text;html=1;align=center;verticalAlign=middle;resizable=0;points=[];autosize=1;strokeColor=none;fillColor=none;fontSize=15;fontStyle=1" vertex="1" parent="1">
          <mxGeometry x="525" y="590" width="60" height="30" as="geometry" />
        </mxCell>
        <mxCell id="c7BrIo0tIst9Jb-eHItU-37" value="" style="image;html=1;image=img/lib/clip_art/computers/Server_128x128.png" vertex="1" parent="1">
          <mxGeometry x="480" y="260" width="80" height="80" as="geometry" />
        </mxCell>
        <mxCell id="c7BrIo0tIst9Jb-eHItU-38" value="家服线索" style="text;html=1;align=center;verticalAlign=middle;resizable=0;points=[];autosize=1;strokeColor=none;fillColor=none;fontSize=15;fontStyle=1" vertex="1" parent="1">
          <mxGeometry x="485" y="340" width="80" height="30" as="geometry" />
        </mxCell>
        <mxCell id="c7BrIo0tIst9Jb-eHItU-41" value="" style="endArrow=classic;html=1;rounded=0;exitX=1;exitY=0.25;exitDx=0;exitDy=0;" edge="1" parent="1" source="c7BrIo0tIst9Jb-eHItU-10">
          <mxGeometry width="50" height="50" relative="1" as="geometry">
            <mxPoint x="440" y="390" as="sourcePoint" />
            <mxPoint x="470" y="350" as="targetPoint" />
          </mxGeometry>
        </mxCell>
        <mxCell id="c7BrIo0tIst9Jb-eHItU-42" value="线索上报" style="edgeLabel;html=1;align=center;verticalAlign=middle;resizable=0;points=[];" vertex="1" connectable="0" parent="c7BrIo0tIst9Jb-eHItU-41">
          <mxGeometry x="0.0324" relative="1" as="geometry">
            <mxPoint y="-1" as="offset" />
          </mxGeometry>
        </mxCell>
      </root>
    </mxGraphModel>
  </diagram>
</mxfile>
